<svg width="146" height="22" viewBox="0 0 146 22" fill="none" xmlns="http://www.w3.org/2000/svg">
<path d="M12.2021 9.96182C12.2021 10.3797 12.1743 10.7558 12.1185 11.0901H3.65642C3.72607 11.9259 4.01858 12.5806 4.53397 13.0542C5.04936 13.5278 5.68315 13.7646 6.43534 13.7646C7.52183 13.7646 8.29491 13.2979 8.75458 12.3646H11.9096C11.5753 13.479 10.9345 14.3983 9.98734 15.1227C9.04014 15.8331 7.87703 16.1883 6.49802 16.1883C5.38367 16.1883 4.38075 15.9445 3.48927 15.457C2.61171 14.9555 1.92221 14.2521 1.42075 13.3467C0.933218 12.4413 0.689453 11.3966 0.689453 10.2126C0.689453 9.01462 0.933218 7.96295 1.42075 7.05754C1.90828 6.15213 2.59082 5.45566 3.46837 4.96813C4.34592 4.4806 5.35581 4.23683 6.49802 4.23683C7.59844 4.23683 8.58047 4.47363 9.44409 4.94723C10.3216 5.42083 10.9972 6.09641 11.4708 6.97396C11.9583 7.83759 12.2021 8.83354 12.2021 9.96182ZM9.17247 9.12606C9.15854 8.37387 8.88691 7.7749 8.35759 7.32916C7.82828 6.86949 7.18056 6.63966 6.41444 6.63966C5.69011 6.63966 5.07722 6.86253 4.57576 7.30827C4.08823 7.74008 3.78875 8.34601 3.67731 9.12606H9.17247Z" fill="#181818"/>
<path d="M13.585 10.1708C13.585 9.00069 13.8149 7.96295 14.2745 7.05754C14.7481 6.15213 15.3889 5.45566 16.1968 4.96813C17.0047 4.4806 17.9032 4.23683 18.8921 4.23683C19.6443 4.23683 20.3617 4.40399 21.0442 4.73829C21.7268 5.05867 22.27 5.49048 22.674 6.03373V0.538574H25.6409V16.0002H22.674V14.2869C22.3118 14.858 21.8034 15.3177 21.1487 15.6659C20.494 16.0142 19.7349 16.1883 18.8713 16.1883C17.8962 16.1883 17.0047 15.9375 16.1968 15.4361C15.3889 14.9346 14.7481 14.2312 14.2745 13.3258C13.8149 12.4064 13.585 11.3548 13.585 10.1708ZM22.6949 10.2126C22.6949 9.50215 22.5556 8.89622 22.277 8.39476C21.9984 7.87937 21.6223 7.48935 21.1487 7.22469C20.6751 6.9461 20.1667 6.80681 19.6234 6.80681C19.0802 6.80681 18.5787 6.93914 18.1191 7.2038C17.6594 7.46846 17.2833 7.85848 16.9908 8.37387C16.7122 8.87533 16.5729 9.47429 16.5729 10.1708C16.5729 10.8672 16.7122 11.4801 16.9908 12.0094C17.2833 12.5248 17.6594 12.9218 18.1191 13.2004C18.5927 13.479 19.0941 13.6183 19.6234 13.6183C20.1667 13.6183 20.6751 13.486 21.1487 13.2213C21.6223 12.9427 21.9984 12.5527 22.277 12.0512C22.5556 11.5358 22.6949 10.923 22.6949 10.2126Z" fill="#181818"/>
<path d="M39.4255 4.42488V16.0002H36.4794V14.5376C36.1034 15.0391 35.6089 15.4361 34.996 15.7286C34.397 16.0072 33.7423 16.1465 33.0319 16.1465C32.1265 16.1465 31.3256 15.9584 30.6291 15.5823C29.9326 15.1923 29.3824 14.6282 28.9785 13.8899C28.5884 13.1377 28.3934 12.2462 28.3934 11.2155V4.42488H31.3186V10.7976C31.3186 11.7169 31.5484 12.4273 32.0081 12.9288C32.4678 13.4163 33.0946 13.6601 33.8886 13.6601C34.6965 13.6601 35.3303 13.4163 35.7899 12.9288C36.2496 12.4273 36.4794 11.7169 36.4794 10.7976V4.42488H39.4255Z" fill="#181818"/>
<path d="M41.5595 10.1708C41.5595 9.00069 41.7893 7.96295 42.249 7.05754C42.7226 6.15213 43.3564 5.45566 44.1504 4.96813C44.9583 4.4806 45.8567 4.23683 46.8457 4.23683C47.7093 4.23683 48.4615 4.41095 49.1023 4.75919C49.757 5.10742 50.2793 5.5462 50.6693 6.07552V4.42488H53.6154V16.0002H50.6693V14.3078C50.2932 14.851 49.7709 15.3038 49.1023 15.6659C48.4476 16.0142 47.6884 16.1883 46.8248 16.1883C45.8498 16.1883 44.9583 15.9375 44.1504 15.4361C43.3564 14.9346 42.7226 14.2312 42.249 13.3258C41.7893 12.4064 41.5595 11.3548 41.5595 10.1708ZM50.6693 10.2126C50.6693 9.50215 50.53 8.89622 50.2514 8.39476C49.9729 7.87937 49.5968 7.48935 49.1232 7.22469C48.6496 6.9461 48.1411 6.80681 47.5979 6.80681C47.0546 6.80681 46.5532 6.93914 46.0935 7.2038C45.6338 7.46846 45.2578 7.85848 44.9652 8.37387C44.6866 8.87533 44.5474 9.47429 44.5474 10.1708C44.5474 10.8672 44.6866 11.4801 44.9652 12.0094C45.2578 12.5248 45.6338 12.9218 46.0935 13.2004C46.5671 13.479 47.0686 13.6183 47.5979 13.6183C48.1411 13.6183 48.6496 13.486 49.1232 13.2213C49.5968 12.9427 49.9729 12.5527 50.2514 12.0512C50.53 11.5358 50.6693 10.923 50.6693 10.2126Z" fill="#181818"/>
<path d="M59.3975 6.22177C59.7736 5.60888 60.2611 5.12832 60.8601 4.78008C61.473 4.43184 62.1695 4.25773 62.9495 4.25773V7.32916H62.1764C61.2571 7.32916 60.5606 7.54507 60.087 7.97688C59.6274 8.40869 59.3975 9.16088 59.3975 10.2334V16.0002H56.4723V4.42488H59.3975V6.22177Z" fill="#181818"/>
<path d="M64.1676 10.1708C64.1676 9.00069 64.3974 7.96295 64.8571 7.05754C65.3307 6.15213 65.9714 5.45566 66.7793 4.96813C67.5872 4.4806 68.4857 4.23683 69.4747 4.23683C70.2269 4.23683 70.9442 4.40399 71.6268 4.73829C72.3093 5.05867 72.8526 5.49048 73.2565 6.03373V0.538574H76.2235V16.0002H73.2565V14.2869C72.8944 14.858 72.3859 15.3177 71.7313 15.6659C71.0766 16.0142 70.3174 16.1883 69.4538 16.1883C68.4787 16.1883 67.5872 15.9375 66.7793 15.4361C65.9714 14.9346 65.3307 14.2312 64.8571 13.3258C64.3974 12.4064 64.1676 11.3548 64.1676 10.1708ZM73.2774 10.2126C73.2774 9.50215 73.1381 8.89622 72.8595 8.39476C72.5809 7.87937 72.2049 7.48935 71.7313 7.22469C71.2577 6.9461 70.7492 6.80681 70.206 6.80681C69.6627 6.80681 69.1613 6.93914 68.7016 7.2038C68.2419 7.46846 67.8658 7.85848 67.5733 8.37387C67.2947 8.87533 67.1554 9.47429 67.1554 10.1708C67.1554 10.8672 67.2947 11.4801 67.5733 12.0094C67.8658 12.5248 68.2419 12.9218 68.7016 13.2004C69.1752 13.479 69.6767 13.6183 70.206 13.6183C70.7492 13.6183 71.2577 13.486 71.7313 13.2213C72.2049 12.9427 72.5809 12.5527 72.8595 12.0512C73.1381 11.5358 73.2774 10.923 73.2774 10.2126Z" fill="#181818"/>
<path d="M84.2204 16.1883C83.106 16.1883 82.1031 15.9445 81.2116 15.457C80.3202 14.9555 79.6167 14.2521 79.1013 13.3467C78.5999 12.4413 78.3491 11.3966 78.3491 10.2126C78.3491 9.02855 78.6068 7.98385 79.1222 7.07843C79.6515 6.17302 80.3689 5.47655 81.2743 4.98902C82.1797 4.48756 83.1896 4.23683 84.304 4.23683C85.4183 4.23683 86.4282 4.48756 87.3336 4.98902C88.239 5.47655 88.9494 6.17302 89.4648 7.07843C89.9941 7.98385 90.2588 9.02855 90.2588 10.2126C90.2588 11.3966 89.9872 12.4413 89.4439 13.3467C88.9146 14.2521 88.1903 14.9555 87.2709 15.457C86.3655 15.9445 85.3487 16.1883 84.2204 16.1883ZM84.2204 13.6392C84.7497 13.6392 85.2442 13.5138 85.7039 13.2631C86.1775 12.9984 86.5536 12.6084 86.8322 12.093C87.1107 11.5776 87.25 10.9508 87.25 10.2126C87.25 9.11213 86.9575 8.2694 86.3725 7.68436C85.8014 7.0854 85.0979 6.78592 84.2622 6.78592C83.4264 6.78592 82.723 7.0854 82.1519 7.68436C81.5947 8.2694 81.3161 9.11213 81.3161 10.2126C81.3161 11.313 81.5877 12.1627 82.131 12.7616C82.6882 13.3467 83.3846 13.6392 84.2204 13.6392Z" fill="#181818"/>
<path d="M108.305 1.41613V16.0002H105.38V6.51429L101.473 16.0002H99.2578L95.3297 6.51429V16.0002H92.4045V1.41613H95.7267L100.365 12.2602L105.004 1.41613H108.305Z" fill="#181818"/>
<path d="M121.957 9.96182C121.957 10.3797 121.93 10.7558 121.874 11.0901H113.412C113.481 11.9259 113.774 12.5806 114.289 13.0542C114.805 13.5278 115.438 13.7646 116.191 13.7646C117.277 13.7646 118.05 13.2979 118.51 12.3646H121.665C121.331 13.479 120.69 14.3983 119.743 15.1227C118.795 15.8331 117.632 16.1883 116.253 16.1883C115.139 16.1883 114.136 15.9445 113.245 15.457C112.367 14.9555 111.678 14.2521 111.176 13.3467C110.689 12.4413 110.445 11.3966 110.445 10.2126C110.445 9.01462 110.689 7.96295 111.176 7.05754C111.664 6.15213 112.346 5.45566 113.224 4.96813C114.101 4.4806 115.111 4.23683 116.253 4.23683C117.354 4.23683 118.336 4.47363 119.199 4.94723C120.077 5.42083 120.753 6.09641 121.226 6.97396C121.714 7.83759 121.957 8.83354 121.957 9.96182ZM118.928 9.12606C118.914 8.37387 118.642 7.7749 118.113 7.32916C117.584 6.86949 116.936 6.63966 116.17 6.63966C115.445 6.63966 114.833 6.86253 114.331 7.30827C113.844 7.74008 113.544 8.34601 113.433 9.12606H118.928Z" fill="#181818"/>
<path d="M127.018 6.09641C127.394 5.56709 127.909 5.12832 128.564 4.78008C129.233 4.41792 129.992 4.23683 130.841 4.23683C131.83 4.23683 132.722 4.4806 133.516 4.96813C134.324 5.45566 134.958 6.15213 135.417 7.05754C135.891 7.94902 136.128 8.98676 136.128 10.1708C136.128 11.3548 135.891 12.4064 135.417 13.3258C134.958 14.2312 134.324 14.9346 133.516 15.4361C132.722 15.9375 131.83 16.1883 130.841 16.1883C129.992 16.1883 129.239 16.0142 128.585 15.6659C127.944 15.3177 127.422 14.8789 127.018 14.3496V21.5163H124.093V4.42488H127.018V6.09641ZM133.14 10.1708C133.14 9.47429 132.993 8.87533 132.701 8.37387C132.422 7.85848 132.046 7.46846 131.573 7.2038C131.113 6.93914 130.612 6.80681 130.068 6.80681C129.539 6.80681 129.038 6.9461 128.564 7.22469C128.104 7.48935 127.728 7.87937 127.436 8.39476C127.157 8.91015 127.018 9.51608 127.018 10.2126C127.018 10.909 127.157 11.515 127.436 12.0303C127.728 12.5457 128.104 12.9427 128.564 13.2213C129.038 13.486 129.539 13.6183 130.068 13.6183C130.612 13.6183 131.113 13.479 131.573 13.2004C132.046 12.9218 132.422 12.5248 132.701 12.0094C132.993 11.4941 133.14 10.8812 133.14 10.1708Z" fill="#181818"/>
<path d="M142.286 16.2927C141.227 16.2927 140.35 15.9723 139.653 15.3316C138.985 14.663 138.65 13.8411 138.65 12.8661C138.65 11.891 138.985 11.0831 139.653 10.4424C140.35 9.77376 141.227 9.43945 142.286 9.43945C143.317 9.43945 144.166 9.77376 144.835 10.4424C145.504 11.0831 145.838 11.891 145.838 12.8661C145.838 13.8411 145.504 14.663 144.835 15.3316C144.166 15.9723 143.317 16.2927 142.286 16.2927Z" fill="#E9316F"/>
</svg>
